<svg width="61" height="77" viewBox="0 0 61 77" fill="none" xmlns="http://www.w3.org/2000/svg">
<g clip-path="url(#clip0_121_294)">
<path d="M45.5421 51.8859L43.0917 48.0739L43.3762 47.9513C48.1145 45.7639 51.9569 41.9996 54.2547 37.2942C56.5524 32.5887 57.1646 27.2303 55.9881 22.1236C54.8115 17.017 51.9182 12.4749 47.7966 9.26427C43.6751 6.05364 38.5778 4.37114 33.3653 4.50087C20.9853 4.78108 11.23 15.2715 11.23 27.7176V51.0687C12.9762 49.156 15.1353 47.6711 17.5414 46.7282C19.9474 45.7852 22.5365 45.4092 25.1096 45.6291C27.6828 45.8489 30.1716 46.6588 32.3849 47.9964C34.5982 49.334 36.477 51.1639 37.8772 53.3454L53.0909 77.0233H47.7719L34.2828 56.0074C33.2003 54.2869 31.7265 52.8497 29.9829 51.8144C28.2393 50.7791 26.2759 50.1753 24.2545 50.0529C22.5747 49.9765 20.8969 50.2426 19.3222 50.8353C17.7474 51.428 16.3082 52.3351 15.0913 53.5017C13.8744 54.6684 12.905 56.0706 12.2414 57.6238C11.5778 59.1771 11.2337 60.8494 11.23 62.5399V76.9941H6.76458C6.76458 76.9941 6.76458 26.9295 6.76458 26.7894L4.99352 29.3872C4.64193 29.8927 4.10569 30.2378 3.50187 30.3472C2.89806 30.4566 2.27573 30.3213 1.77076 29.971L-0.00610352 28.7451L11.4739 11.9148C13.8187 8.45368 16.9252 5.58214 20.5523 3.52296C24.1794 1.46379 28.2296 0.27232 32.3887 0.0410117C36.5478 -0.190296 40.704 0.544772 44.5349 2.18918C48.3658 3.83358 51.7684 6.34312 54.4787 9.52313C57.189 12.7031 59.1342 16.4681 60.1634 20.526C61.1926 24.5838 61.2781 28.8255 60.4132 32.922C59.5484 37.0184 57.7565 40.8595 55.1765 44.1473C52.5965 47.435 49.2978 50.0811 45.5363 51.8801L45.5421 51.8859Z" fill="#1B2849"/>
<g clip-path="url(#clip1_121_294)">
<path d="M45.5421 51.8859L43.0917 48.0739L43.3762 47.9513C48.1145 45.7639 51.9569 41.9996 54.2547 37.2942C56.5524 32.5887 57.1646 27.2303 55.9881 22.1236C54.8115 17.017 51.9182 12.4749 47.7966 9.26427C43.6751 6.05364 38.5778 4.37114 33.3653 4.50087C20.9853 4.78108 11.23 15.2715 11.23 27.7176V51.0687C12.9762 49.156 15.1353 47.6711 17.5414 46.7282C19.9474 45.7852 22.5365 45.4092 25.1096 45.6291C27.6828 45.8489 30.1716 46.6588 32.3849 47.9964C34.5982 49.334 36.477 51.1639 37.8772 53.3454L53.0909 77.0233H47.7719L34.2828 56.0074C33.2003 54.2869 31.7265 52.8497 29.9829 51.8144C28.2393 50.7791 26.2759 50.1753 24.2545 50.0529C22.5747 49.9765 20.8969 50.2426 19.3222 50.8353C17.7474 51.428 16.3082 52.3351 15.0913 53.5017C13.8744 54.6684 12.905 56.0706 12.2414 57.6238C11.5778 59.1771 11.2337 60.8494 11.23 62.5399V76.9941H6.76458C6.76458 76.9941 6.76458 26.9295 6.76458 26.7894L4.99352 29.3872C4.64193 29.8927 4.10569 30.2378 3.50187 30.3472C2.89806 30.4566 2.27573 30.3213 1.77076 29.971L-0.00610352 28.7451L11.4739 11.9148C13.8187 8.45368 16.9252 5.58214 20.5523 3.52296C24.1794 1.46379 28.2296 0.27232 32.3887 0.0410117C36.5478 -0.190296 40.704 0.544772 44.5349 2.18918C48.3658 3.83358 51.7684 6.34312 54.4787 9.52313C57.189 12.7031 59.1342 16.4681 60.1634 20.526C61.1926 24.5838 61.2781 28.8255 60.4132 32.922C59.5484 37.0184 57.7565 40.8595 55.1765 44.1473C52.5965 47.435 49.2978 50.0811 45.5363 51.8801L45.5421 51.8859Z" fill="#1B2849"/>
</g>
</g>
<defs>
<clipPath id="clip0_121_294">
<rect width="61" height="77" fill="white"/>
</clipPath>
<clipPath id="clip1_121_294">
<rect width="61" height="77" fill="white"/>
</clipPath>
</defs>
</svg>
