<svg width="129" height="163" viewBox="0 0 129 163" fill="none" xmlns="http://www.w3.org/2000/svg">
<g clip-path="url(#clip0_121_271)">
<path d="M96.3108 109.837L91.1287 101.767L91.7304 101.507C101.751 96.8768 109.877 88.9084 114.736 78.9475C119.595 68.9866 120.89 57.6435 118.401 46.8333C115.913 36.023 109.795 26.408 101.079 19.6114C92.3625 12.8149 81.583 9.25326 70.5599 9.52789C44.3793 10.1211 23.7491 32.3281 23.7491 58.6751V108.106C27.442 104.058 32.0079 100.914 37.0961 98.9181C42.1844 96.922 47.6596 96.1261 53.1012 96.5915C58.5428 97.0569 63.806 98.7712 68.4865 101.603C73.1671 104.434 77.1404 108.308 80.1014 112.926L112.275 163.049H101.026L72.5002 118.561C70.211 114.919 67.0942 111.877 63.4069 109.685C59.7197 107.493 55.5675 106.215 51.2928 105.956C47.7405 105.794 44.1923 106.358 40.8621 107.613C37.5318 108.867 34.4883 110.787 31.9149 113.257C29.3415 115.727 27.2913 118.695 25.888 121.983C24.4846 125.271 23.757 128.811 23.7491 132.39V162.988H14.3059C14.3059 162.988 14.3059 57.0068 14.3059 56.7102L10.5605 62.2094C9.817 63.2795 8.68297 64.01 7.40606 64.2416C6.12914 64.4731 4.81307 64.1868 3.74518 63.4452L-0.0124512 60.85L24.2648 25.2224C29.2237 17.8955 35.7932 11.8168 43.4636 7.45777C51.134 3.09873 59.6992 0.576541 68.4946 0.0868883C77.2901 -0.402764 86.0795 1.15329 94.1809 4.6343C102.282 8.11532 109.478 13.4277 115.21 20.1594C120.941 26.8911 125.055 34.8611 127.231 43.4511C129.408 52.0412 129.588 61.0204 127.76 69.6921C125.931 78.3638 122.141 86.4949 116.685 93.4547C111.229 100.414 104.253 106.016 96.2985 109.824L96.3108 109.837Z" fill="#ECBB3E"/>
<g clip-path="url(#clip1_121_271)">
<path d="M96.3108 109.837L91.1287 101.767L91.7304 101.507C101.751 96.8768 109.877 88.9084 114.736 78.9475C119.595 68.9866 120.89 57.6435 118.401 46.8333C115.913 36.023 109.795 26.408 101.079 19.6114C92.3625 12.8149 81.583 9.25326 70.5599 9.52789C44.3793 10.1211 23.7491 32.3281 23.7491 58.6751V108.106C27.442 104.058 32.0079 100.914 37.0961 98.9181C42.1844 96.922 47.6596 96.1261 53.1012 96.5915C58.5428 97.0569 63.806 98.7712 68.4865 101.603C73.1671 104.434 77.1404 108.308 80.1014 112.926L112.275 163.049H101.026L72.5002 118.561C70.211 114.919 67.0942 111.877 63.4069 109.685C59.7197 107.493 55.5675 106.215 51.2928 105.956C47.7405 105.794 44.1923 106.358 40.8621 107.613C37.5318 108.867 34.4883 110.787 31.9149 113.257C29.3415 115.727 27.2913 118.695 25.888 121.983C24.4846 125.271 23.757 128.811 23.7491 132.39V162.988H14.3059C14.3059 162.988 14.3059 57.0068 14.3059 56.7102L10.5605 62.2094C9.817 63.2795 8.68297 64.01 7.40606 64.2416C6.12914 64.4731 4.81307 64.1868 3.74518 63.4452L-0.0124512 60.85L24.2648 25.2224C29.2237 17.8955 35.7932 11.8168 43.4636 7.45777C51.134 3.09873 59.6992 0.576541 68.4946 0.0868883C77.2901 -0.402764 86.0795 1.15329 94.1809 4.6343C102.282 8.11532 109.478 13.4277 115.21 20.1594C120.941 26.8911 125.055 34.8611 127.231 43.4511C129.408 52.0412 129.588 61.0204 127.76 69.6921C125.931 78.3638 122.141 86.4949 116.685 93.4547C111.229 100.414 104.253 106.016 96.2985 109.824L96.3108 109.837Z" fill="#ECBB3E"/>
</g>
</g>
<defs>
<clipPath id="clip0_121_271">
<rect width="129" height="163" fill="white"/>
</clipPath>
<clipPath id="clip1_121_271">
<rect width="129" height="163" fill="white"/>
</clipPath>
</defs>
</svg>
