<svg width="341" height="80" viewBox="0 0 341 80" fill="none" xmlns="http://www.w3.org/2000/svg">
<g clip-path="url(#clip0_0_1)">
<path d="M30.1907 22.7555C31.571 20.3857 32.2606 17.677 32.1815 14.9358C32.2439 12.9821 31.8844 11.0379 31.1274 9.23572C30.3704 7.43355 29.2338 5.81574 27.795 4.49259C25.0366 2.14752 21.3756 0.966553 16.3143 0.966553H0V40.5713H7.49075V29.0653H16.3143C16.947 29.0653 17.4109 29.0653 17.7146 29.0147L24.463 40.5713H33.0082L24.404 27.6144C26.7982 26.6476 28.8243 24.9464 30.1907 22.7555ZM22.7928 20.6297C21.2969 21.8613 19.1374 22.4771 16.3143 22.4771H7.49075V7.50408H16.3143C19.1402 7.50408 21.2997 8.09456 22.7928 9.29241C24.2859 10.4902 25.0282 12.7763 25.0282 15.1551C25.0282 17.5339 24.2774 19.4066 22.7928 20.6297Z" fill="#1B2849"/>
<path d="M58.6015 12.363C56.0775 11.0591 53.2678 10.4067 50.4275 10.465C47.5573 10.404 44.7169 11.0562 42.1607 12.363C39.8337 13.5717 37.9017 15.4218 36.5933 17.6942C35.2456 20.1101 34.5644 22.8409 34.6194 25.6067C34.5646 28.3967 35.2454 31.1518 36.5933 33.5952C37.896 35.8784 39.8289 37.7381 42.1607 38.9517C44.7169 40.2585 47.5573 40.9107 50.4275 40.8497C53.2678 40.908 56.0775 40.2556 58.6015 38.9517C60.9221 37.7344 62.8431 35.8749 64.1352 33.5952C65.4898 31.1541 66.1738 28.3979 66.1176 25.6067C66.1741 22.8397 65.4896 20.1078 64.1352 17.6942C62.8374 15.4253 60.9172 13.5754 58.6015 12.363ZM56.4589 32.2539C55.6921 33.0813 54.7572 33.7352 53.7169 34.1716C52.6767 34.6081 51.5551 34.8171 50.4275 34.7846C49.2813 34.8259 48.1395 34.6214 47.0788 34.1849C46.0182 33.7484 45.0632 33.09 44.278 32.2539C42.7615 30.4128 41.9323 28.1017 41.9323 25.7164C41.9323 23.3311 42.7615 21.02 44.278 19.1789C45.0632 18.3428 46.0182 17.6844 47.0788 17.2479C48.1395 16.8114 49.2813 16.6069 50.4275 16.6482C51.5551 16.6157 52.6767 16.8247 53.7169 17.2612C54.7572 17.6976 55.6921 18.3515 56.4589 19.1789C57.9754 21.02 58.8046 23.3311 58.8046 25.7164C58.8046 28.1017 57.9754 30.4128 56.4589 32.2539Z" fill="#1B2849"/>
<path d="M91.5001 25.438C91.5804 27.6429 90.8682 29.8036 89.4924 31.5285C88.8203 32.3196 87.98 32.9506 87.0328 33.3753C86.0856 33.8 85.0555 34.0077 84.0178 33.9832C83.1491 34.0317 82.2799 33.8977 81.4663 33.5897C80.6526 33.2816 79.9126 32.8065 79.2939 32.1949C78.1062 30.8415 77.5 29.0744 77.6068 27.277V10.6927H70.2932V29.4027C70.2932 32.94 71.2604 35.7322 73.195 37.7792C75.1295 39.8262 77.7727 40.8497 81.1244 40.8497C86.0395 40.8497 89.5036 38.9152 91.5169 35.0461V40.5713H98.8305V10.6927H91.5001V25.438Z" fill="#1B2849"/>
<path d="M121.471 10.3975C116.371 10.465 112.797 12.4333 110.75 16.3024V10.7181H103.487V40.5967H110.75V25.8851C110.658 23.6464 111.403 21.4536 112.842 19.7356C113.558 18.9313 114.442 18.2944 115.432 17.8701C116.422 17.4459 117.493 17.2447 118.57 17.2809C119.46 17.2363 120.351 17.3741 121.186 17.686C122.022 17.9979 122.785 18.4772 123.429 19.0945C124.042 19.7569 124.517 20.5358 124.824 21.3849C125.131 22.234 125.265 23.1361 125.217 24.0378V40.5714H132.539V21.9204C132.539 18.3775 131.543 15.5769 129.578 13.4849C127.613 11.3929 124.896 10.3975 121.471 10.3975Z" fill="#1B2849"/>
<path d="M160.975 15.5769C159.92 13.9543 158.468 12.6276 156.757 11.7219C154.902 10.7953 152.849 10.3349 150.776 10.3806C148.2 10.3332 145.66 10.9894 143.429 12.2786C141.296 13.5419 139.571 15.3927 138.461 17.6099C137.294 20.1024 136.689 22.8209 136.689 25.573C136.689 28.3251 137.294 31.0435 138.461 33.5361C139.573 35.7821 141.306 37.6617 143.454 38.9517C145.071 39.9047 146.865 40.5162 148.727 40.7485C149.452 40.8373 150.181 40.8824 150.911 40.8835C152.957 40.9311 154.984 40.4794 156.816 39.5675C158.519 38.6848 159.957 37.3662 160.983 35.7462V40.546H168.263V0.941284H161L160.975 15.5769ZM158.596 32.2455C157.82 33.081 156.872 33.7394 155.818 34.1761C154.764 34.6128 153.629 34.8174 152.489 34.7761C151.766 34.78 151.044 34.7036 150.338 34.5484C148.819 34.1947 147.444 33.3853 146.398 32.2286C144.839 30.3975 143.983 28.0709 143.983 25.6658C143.983 23.2607 144.839 20.9341 146.398 19.103C147.172 18.2684 148.117 17.6103 149.168 17.1736C150.219 16.7369 151.351 16.5318 152.489 16.5723C154.255 16.5283 155.989 17.0548 157.432 18.0738C157.851 18.383 158.241 18.7303 158.596 19.1114C160.133 20.9528 160.976 23.2754 160.976 25.6742C160.976 28.073 160.133 30.3956 158.596 32.2371V32.2455Z" fill="#1B2849"/>
<path d="M227.042 16.412V10.659H219.787V40.546H227.042V26.1382C227.044 25.6534 227.072 25.169 227.126 24.6873C227.35 22.7055 228.307 20.879 229.809 19.5669C231.653 17.9473 234.122 17.2331 237.215 17.4243V10.3975C235.089 10.3832 232.997 10.9302 231.15 11.9834C229.393 13.0459 227.97 14.5803 227.042 16.412Z" fill="#1B2849"/>
<path d="M262.944 15.4588C261.895 13.8497 260.44 12.546 258.726 11.6797C256.903 10.7855 254.893 10.3373 252.863 10.3722C250.268 10.3187 247.707 10.9749 245.457 12.2702C243.316 13.5323 241.583 15.3827 240.463 17.6014C239.536 19.3927 238.963 21.3461 238.776 23.3544C238.7 24.0717 238.664 24.7927 238.666 25.5139C238.611 28.29 239.224 31.0386 240.454 33.5277C241.564 35.7753 243.298 37.6555 245.448 38.9433C247.709 40.2613 250.289 40.9298 252.905 40.875C254.668 40.9048 256.418 40.5658 258.043 39.8796C258.287 39.7784 258.515 39.6772 258.743 39.5591C260.433 38.6843 261.866 37.3848 262.901 35.7884V40.5376H270.164V10.659H262.901L262.944 15.4588ZM262.944 26.7371C262.822 28.9407 261.888 31.0208 260.32 32.5745C259.594 33.2836 258.734 33.84 257.789 34.211C256.746 34.6028 255.639 34.7973 254.525 34.7846C253.387 34.8284 252.253 34.6249 251.202 34.188C250.15 33.7511 249.206 33.0912 248.434 32.2539C246.825 30.4566 245.965 28.1113 246.03 25.6995C246.037 24.608 246.198 23.5229 246.511 22.4771C246.893 21.2233 247.55 20.0705 248.434 19.1029C249.208 18.2683 250.153 17.6103 251.204 17.1736C252.255 16.7369 253.388 16.5318 254.525 16.5723C255.59 16.5358 256.652 16.7117 257.648 17.0897C258.644 17.4677 259.556 18.0402 260.329 18.7739C261.897 20.3306 262.831 22.4136 262.952 24.6197L262.944 26.7371Z" fill="#1B2849"/>
<path d="M298.845 15.5769C297.792 13.9524 296.34 12.6251 294.627 11.7219C292.775 10.7963 290.725 10.336 288.655 10.3806C286.076 10.3325 283.533 10.9887 281.299 12.2786C279.166 13.5419 277.441 15.3927 276.331 17.6099C275.164 20.1024 274.559 22.8209 274.559 25.573C274.559 28.3251 275.164 31.0435 276.331 33.5361C277.443 35.7821 279.176 37.6617 281.325 38.9517C283.586 40.2677 286.166 40.936 288.782 40.8835C290.827 40.9287 292.853 40.4772 294.686 39.5675C296.385 38.6823 297.82 37.364 298.845 35.7462V40.546H306.108V0.941284H298.845V15.5769ZM296.483 32.2455C295.704 33.0803 294.755 33.7382 293.7 34.1748C292.645 34.6113 291.509 34.8164 290.367 34.7761C289.23 34.8189 288.096 34.6148 287.045 34.178C285.994 33.7411 285.049 33.0819 284.277 32.2455C282.718 30.4143 281.861 28.0878 281.861 25.6826C281.861 23.2775 282.718 20.951 284.277 19.1198C285.051 18.2861 285.996 17.6286 287.047 17.192C288.098 16.7554 289.23 16.5498 290.367 16.5892C291.508 16.5522 292.644 16.7588 293.698 17.1951C294.753 17.6315 295.702 18.2876 296.483 19.1198C298.014 20.9641 298.852 23.2857 298.852 25.6826C298.852 28.0796 298.014 30.4012 296.483 32.2455Z" fill="#1B2849"/>
<path d="M331.474 33.9579C330.079 34.6498 328.543 35.0107 326.986 35.0123C325.255 35.0538 323.552 34.578 322.093 33.6458C320.68 32.7178 319.578 31.3865 318.93 29.8245L340.213 23.7846C340.033 19.685 338.675 16.4373 336.139 14.0416C333.602 11.6459 330.287 10.4453 326.193 10.4396C323.365 10.3768 320.569 11.039 318.07 12.3629C315.794 13.5919 313.924 15.4558 312.688 17.7279C311.383 20.1545 310.729 22.8776 310.79 25.632C310.726 28.4123 311.407 31.159 312.764 33.5867C314.064 35.8561 315.983 37.7083 318.297 38.9264C320.825 40.2276 323.637 40.8798 326.48 40.8244C328.989 40.8859 331.478 40.3684 333.754 39.3122C336.03 38.2559 338.033 36.6893 339.606 34.7339L335.388 30.8283C334.316 32.1329 332.982 33.1989 331.474 33.9579ZM318.103 24.9656C318.103 22.1313 318.88 19.9465 320.33 18.4281C321.11 17.6464 322.045 17.038 323.076 16.6426C324.107 16.2472 325.209 16.0738 326.311 16.1336C329.685 16.1336 331.929 17.6436 333.127 20.6635L318.103 24.9656Z" fill="#1B2849"/>
<path d="M203.245 1.21123C202.925 1.21123 202.604 1.13531 202.284 1.11001C202.153 1.08815 202.02 1.07407 201.887 1.06784L201.238 1.02567C200.917 1.02567 200.605 0.983472 200.285 0.975037C199.804 0.975037 199.331 0.975037 198.842 0.975037C198.353 0.975037 197.779 0.975037 197.256 0.975037C194.962 1.06129 192.681 1.37495 190.449 1.91139C190.272 1.91139 190.103 1.9873 189.926 2.02948L189.082 2.24881L187.775 2.63683C187.344 2.7718 186.931 2.91522 186.484 3.0755L185.598 3.39605L184.755 3.74189C184.215 3.96964 183.692 4.21429 183.169 4.46735C182.08 4.97273 181.018 5.5359 179.989 6.15446L181.979 11.6629C182.023 11.7703 182.088 11.8677 182.171 11.9488C182.254 12.0298 182.353 12.0929 182.462 12.1341C182.57 12.1753 182.686 12.1936 182.802 12.188C182.918 12.1824 183.031 12.1529 183.135 12.1015L184.299 11.4857L184.4 11.4351C184.729 11.258 185.067 11.0808 185.413 10.9205L185.657 10.8024C186.079 10.6056 186.509 10.42 186.948 10.2457L187.53 10.0179C187.758 9.92512 187.986 9.84078 188.222 9.76486L189.006 9.49492L189.209 9.42744C191.133 8.828 193.11 8.41279 195.114 8.18742V40.5292H202.604V8.20428C204.04 8.36466 205.464 8.62397 206.864 8.98036C207.303 9.09002 207.708 9.20811 208.163 9.34308L208.349 9.40214C208.568 9.46119 208.796 9.53711 209.007 9.61303C209.218 9.68894 209.479 9.77329 209.707 9.86608C210.39 10.1107 211.057 10.3891 211.706 10.7096C212.01 10.8446 212.322 10.988 212.617 11.1483C213.258 11.4688 213.891 11.8147 214.498 12.1774C214.598 12.2381 214.709 12.2759 214.825 12.288C214.941 12.3002 215.058 12.2864 215.168 12.2476C215.278 12.2088 215.378 12.1461 215.46 12.0639C215.543 11.9817 215.606 11.8822 215.646 11.7725L217.679 6.18821C213.607 3.72853 209.089 2.10002 204.384 1.39681L203.245 1.21123Z" fill="#1B2849"/>
</g>
<g clip-path="url(#clip1_0_1)">
<path d="M99.8507 72.5799C98.7922 73.3624 97.5184 73.7981 96.2034 73.8273C95.6238 73.851 95.0467 73.7395 94.5174 73.5016C93.9882 73.2637 93.5212 72.9061 93.1533 72.4566C92.3996 71.5428 92.0226 70.2102 92.0226 68.4588V53.1298H94.1609V57.4155H99.5544V59.1106H94.1609V68.0978C94.1609 70.5925 94.9481 71.8398 96.5226 71.8398C97.4852 71.7995 98.4159 71.4823 99.2033 70.926L99.8507 72.5799Z" fill="#1B2849"/>
<path d="M107.556 57.9501C108.671 57.2544 109.962 56.893 111.276 56.9084V58.9233C110.498 58.8782 109.718 58.9926 108.985 59.2597C108.252 59.5268 107.581 59.9409 107.013 60.4767C105.896 61.6349 105.247 63.1665 105.19 64.7762V73.7314H103.051V56.9723H105.19V60.8971C105.664 59.6982 106.489 58.6709 107.556 57.9501Z" fill="#1B2849"/>
<path d="M129.276 56.9723V73.7313H127.137V69.9573C126.537 71.1544 125.607 72.1536 124.457 72.8358C123.245 73.536 121.865 73.8899 120.467 73.8593C118.991 73.8864 117.535 73.5105 116.255 72.7718C115.026 72.0565 114.029 71.0016 113.382 69.7335C112.684 68.3691 112.333 66.8529 112.361 65.3199C112.332 63.7968 112.683 62.2906 113.382 60.9381C114.035 59.6886 115.024 58.6472 116.236 57.9318C117.501 57.1971 118.942 56.8212 120.404 56.8444C121.816 56.8144 123.21 57.168 124.438 57.8678C125.594 58.5489 126.531 59.5479 127.137 60.7463V56.9723H129.276ZM125.172 70.3594C126.34 69.2188 127.044 67.6857 127.151 66.0555V64.7121C127.04 63.0751 126.336 61.535 125.172 60.3807C124.603 59.8255 123.929 59.3905 123.189 59.1017C122.448 58.8128 121.658 58.676 120.864 58.6993C119.72 58.681 118.594 58.9798 117.609 59.5629C116.647 60.1354 115.859 60.9601 115.329 61.9479C114.763 63.0031 114.478 64.1861 114.499 65.3838C114.477 66.5749 114.756 67.7522 115.311 68.806C115.835 69.7892 116.625 70.6046 117.591 71.159C118.587 71.7286 119.717 72.0205 120.864 72.0043C121.653 72.0266 122.438 71.8927 123.175 71.6105C123.912 71.3282 124.586 70.9031 125.159 70.3594H125.172Z" fill="#1B2849"/>
<path d="M150.116 50V73.7313H148V69.8934C147.404 71.1064 146.474 72.1229 145.319 72.8221C144.1 73.5316 142.708 73.8905 141.298 73.8593C139.813 73.8928 138.346 73.5183 137.058 72.7764C135.829 72.061 134.832 71.0062 134.186 69.738C133.488 68.3736 133.137 66.8574 133.165 65.3244C133.135 63.7997 133.491 62.2924 134.2 60.9427C134.863 59.695 135.857 58.6548 137.072 57.9363C138.337 57.2017 139.777 56.8258 141.239 56.8489C142.656 56.8183 144.053 57.1837 145.274 57.9043C146.434 58.6089 147.37 59.6294 147.973 60.8468V50.0046L150.116 50ZM144.914 71.159C145.866 70.5985 146.644 69.7839 147.161 68.806C147.717 67.7526 147.998 66.5752 147.977 65.3838C147.997 64.188 147.716 63.0066 147.161 61.9479C146.645 60.9609 145.867 60.1356 144.914 59.5629C143.929 58.9798 142.802 58.681 141.658 58.6993C140.515 58.681 139.388 58.9798 138.403 59.5629C137.441 60.1354 136.653 60.96 136.124 61.9479C135.558 63.0031 135.272 64.1861 135.294 65.3838C135.272 66.5749 135.551 67.7522 136.105 68.806C136.63 69.7892 137.42 70.6046 138.385 71.159C139.381 71.7292 140.511 72.0211 141.658 72.0043C142.8 72.0221 143.925 71.73 144.914 71.159Z" fill="#1B2849"/>
<path d="M155.892 56.9723H158.03V73.7313H155.892V56.9723Z" fill="#1B2849"/>
<path d="M177.065 58.6536C178.205 59.8142 178.774 61.4073 178.774 63.4328V73.7313H176.604V63.9446C176.604 62.3667 176.168 61.1301 175.296 60.2346C174.424 59.339 173.208 58.8912 171.649 58.8912C170.887 58.8665 170.129 58.9952 169.419 59.2699C168.709 59.5447 168.06 59.9597 167.513 60.4904C166.437 61.6391 165.809 63.1377 165.744 64.7121V73.7313H163.606V56.9723H165.744V60.897C166.256 59.671 167.144 58.6402 168.279 57.9546C169.524 57.263 170.928 56.9101 172.351 56.9311C174.354 56.9159 175.925 57.4901 177.065 58.6536Z" fill="#1B2849"/>
<path d="M198.306 56.9723V71.9723C198.339 73.4549 197.987 74.9208 197.285 76.2261C196.612 77.4314 195.594 78.407 194.362 79.0269C192.999 79.6979 191.495 80.0316 189.976 80C187.46 79.9846 185.029 79.0783 183.115 77.4414L184.136 75.9062C184.928 76.6187 185.834 77.1918 186.817 77.6013C187.791 77.9925 188.832 78.1881 189.881 78.177C191.795 78.177 193.315 77.6181 194.44 76.5002C195.018 75.9093 195.469 75.2049 195.763 74.4312C196.057 73.6575 196.189 72.8313 196.149 72.0043V69.2629C195.579 70.4035 194.692 71.3552 193.596 72.0043C192.435 72.6804 191.11 73.0234 189.767 72.9958C188.372 73.0204 186.997 72.6617 185.791 71.9586C184.653 71.2777 183.724 70.2961 183.106 69.1213C182.443 67.8308 182.11 66.3962 182.135 64.9452C182.108 63.4998 182.442 62.0707 183.106 60.7874C183.731 59.5984 184.679 58.6114 185.841 57.9409C187.055 57.2472 188.433 56.8937 189.83 56.9175C191.162 56.8869 192.476 57.2252 193.628 57.8953C194.719 58.5504 195.604 59.5005 196.181 60.6367V56.9815L198.306 56.9723ZM193.263 70.492C194.171 69.953 194.912 69.1715 195.402 68.2349C195.921 67.2389 196.185 66.1285 196.168 65.0046C196.187 63.8703 195.924 62.749 195.402 61.7423C194.912 60.8069 194.171 60.0269 193.263 59.4898C192.325 58.9393 191.255 58.6565 190.168 58.672C189.081 58.6549 188.01 58.9378 187.072 59.4898C186.16 60.0275 185.414 60.8069 184.916 61.7423C184.385 62.7463 184.117 63.8686 184.136 65.0046C184.116 66.1363 184.384 67.2545 184.916 68.2531C185.415 69.1779 186.154 69.9511 187.054 70.492C187.997 71.0456 189.075 71.3271 190.168 71.3052C191.254 71.3223 192.325 71.0411 193.263 70.492Z" fill="#1B2849"/>
<path d="M226.801 56.9723V73.7314H224.667V69.9574C224.064 71.1526 223.134 72.151 221.986 72.8359C220.774 73.5354 219.395 73.8893 217.997 73.8593C216.519 73.8859 215.061 73.51 213.78 72.7719C212.553 72.055 211.558 71.0005 210.912 69.7335C210.212 68.3695 209.86 66.8533 209.886 65.3199C209.858 63.7965 210.211 62.2902 210.912 60.9382C211.565 59.6887 212.553 58.6473 213.766 57.9318C215.029 57.1977 216.468 56.8218 217.929 56.8444C219.342 56.8145 220.738 57.1681 221.968 57.8679C223.123 58.5504 224.059 59.549 224.667 60.7463V56.9723H226.801ZM222.697 70.3595C223.863 69.2176 224.567 67.6853 224.676 66.0555V64.7122C224.563 63.0757 223.859 61.5363 222.697 60.3808C222.128 59.825 221.452 59.3896 220.711 59.1008C219.97 58.8119 219.179 58.6754 218.384 58.6994C217.241 58.681 216.114 58.9799 215.129 59.5629C214.168 60.1368 213.38 60.9611 212.85 61.948C212.286 63.0039 212 64.1864 212.02 65.3838C211.999 66.5753 212.28 67.7526 212.836 68.806C213.36 69.7892 214.15 70.6046 215.116 71.159C216.11 71.7297 217.239 72.0217 218.384 72.0043C219.174 72.0271 219.961 71.8935 220.7 71.6112C221.438 71.329 222.114 70.9036 222.688 70.3595H222.697Z" fill="#1B2849"/>
<path d="M238.928 59.0054C238.171 58.7849 237.387 58.6711 236.598 58.6673C235.701 58.6258 234.81 58.843 234.031 59.2933C233.717 59.4889 233.461 59.7654 233.289 60.0941C233.117 60.4228 233.037 60.7915 233.056 61.162C233.046 61.4201 233.087 61.6776 233.178 61.9193C233.269 62.161 233.407 62.382 233.585 62.5693C233.957 62.9482 234.402 63.2481 234.893 63.4511C235.606 63.7426 236.335 63.9928 237.077 64.2004C238.035 64.4717 238.974 64.809 239.885 65.2101C240.607 65.5367 241.241 66.0299 241.736 66.6494C242.274 67.359 242.545 68.2358 242.502 69.1258C242.536 69.804 242.395 70.4795 242.093 71.0875C241.791 71.6955 241.339 72.2157 240.779 72.5982C239.501 73.4343 237.996 73.8525 236.471 73.7953C235.274 73.7986 234.086 73.593 232.96 73.1876C231.899 72.8259 230.93 72.2365 230.12 71.4605L230.981 69.9253C231.734 70.6037 232.606 71.1352 233.553 71.4925C234.513 71.8708 235.535 72.0661 236.566 72.0682C237.536 72.1115 238.498 71.8668 239.329 71.3646C239.672 71.1491 239.952 70.8459 240.14 70.4861C240.327 70.1264 240.416 69.7231 240.396 69.3177C240.419 68.7605 240.225 68.2161 239.853 67.8008C239.472 67.3969 239.004 67.0846 238.486 66.887C237.942 66.6615 237.191 66.3996 236.234 66.1011C235.301 65.8309 234.387 65.4997 233.498 65.1096C232.804 64.799 232.191 64.3295 231.711 63.7389C231.197 63.0536 230.937 62.2103 230.977 61.3539C230.941 60.7043 231.074 60.0565 231.363 59.4737C231.651 58.8908 232.085 58.3926 232.623 58.0277C233.845 57.2452 235.276 56.8548 236.726 56.9083C237.665 56.9057 238.599 57.0349 239.502 57.2921C240.347 57.5262 241.153 57.8817 241.896 58.3475L241.066 59.9786C240.404 59.5529 239.684 59.2251 238.928 59.0054Z" fill="#1B2849"/>
<path d="M252.619 59.0054C251.862 58.7849 251.078 58.6711 250.289 58.6673C249.392 58.6258 248.501 58.843 247.723 59.2933C247.407 59.4882 247.15 59.7646 246.979 60.0934C246.807 60.4223 246.727 60.7914 246.747 61.162C246.737 61.4201 246.778 61.6776 246.869 61.9193C246.96 62.161 247.098 62.382 247.276 62.5693C247.648 62.9492 248.093 63.2492 248.584 63.4511C249.297 63.7426 250.026 63.9928 250.768 64.2004C251.726 64.4717 252.665 64.809 253.577 65.2101C254.298 65.5367 254.933 66.0299 255.428 66.6494C255.965 67.359 256.236 68.2358 256.194 69.1258C256.227 69.804 256.086 70.4795 255.784 71.0875C255.483 71.6955 255.03 72.2157 254.47 72.5982C253.192 73.4343 251.687 73.8525 250.162 73.7953C248.965 73.7986 247.777 73.593 246.651 73.1876C245.59 72.8259 244.621 72.2365 243.811 71.4605L244.673 69.9253C245.425 70.6037 246.297 71.1352 247.244 71.4925C248.204 71.8708 249.226 72.0661 250.257 72.0682C251.227 72.111 252.188 71.8662 253.02 71.3646C253.364 71.1491 253.643 70.8459 253.831 70.4861C254.018 70.1264 254.107 69.7231 254.087 69.3177C254.111 68.7605 253.916 68.2161 253.545 67.8008C253.163 67.3969 252.696 67.0846 252.177 66.887C251.636 66.6615 250.885 66.3996 249.925 66.1011C248.992 65.8309 248.078 65.4997 247.189 65.1096C246.495 64.799 245.883 64.3295 245.402 63.7389C244.888 63.0536 244.629 62.2103 244.668 61.3539C244.631 60.7041 244.764 60.0558 245.052 59.4727C245.341 58.8896 245.775 58.3917 246.314 58.0277C247.536 57.2452 248.968 56.8548 250.417 56.9083C251.356 56.9057 252.29 57.0349 253.194 57.2921C254.038 57.5262 254.844 57.8817 255.587 58.3475L254.757 59.9786C254.095 59.5529 253.375 59.2251 252.619 59.0054Z" fill="#1B2849"/>
<path d="M259.8 56.9723H261.938V73.7313H259.8V56.9723Z" fill="#1B2849"/>
<path d="M274.034 59.0054C273.276 58.7849 272.492 58.6711 271.704 58.6673C270.806 58.6258 269.915 58.843 269.137 59.2933C268.822 59.4882 268.565 59.7646 268.393 60.0934C268.221 60.4223 268.141 60.7914 268.161 61.162C268.151 61.4201 268.193 61.6776 268.284 61.9193C268.374 62.161 268.513 62.382 268.69 62.5693C269.062 62.9492 269.507 63.2492 269.999 63.4511C270.712 63.7426 271.441 63.9928 272.183 64.2004C273.141 64.4717 274.079 64.809 274.991 65.2101C275.713 65.5367 276.347 66.0299 276.842 66.6494C277.38 67.359 277.651 68.2358 277.608 69.1258C277.641 69.804 277.5 70.4795 277.199 71.0875C276.897 71.6955 276.444 72.2157 275.885 72.5982C274.607 73.4343 273.101 73.8525 271.576 73.7953C270.38 73.7986 269.192 73.593 268.066 73.1876C267.005 72.8259 266.035 72.2365 265.225 71.4605L266.087 69.9253C266.839 70.6037 267.711 71.1352 268.658 71.4925C269.618 71.8708 270.64 72.0661 271.672 72.0682C272.642 72.111 273.603 71.8662 274.435 71.3646C274.778 71.1491 275.058 70.8459 275.245 70.4861C275.433 70.1264 275.521 69.7231 275.502 69.3177C275.525 68.7605 275.33 68.2161 274.959 67.8008C274.577 67.3969 274.11 67.0846 273.591 66.887C273.047 66.6615 272.296 66.3996 271.339 66.1011C270.407 65.8309 269.493 65.4997 268.604 65.1096C267.909 64.799 267.297 64.3295 266.816 63.7389C266.302 63.0536 266.043 62.2103 266.082 61.3539C266.046 60.7041 266.178 60.0558 266.466 59.4727C266.755 58.8896 267.19 58.3917 267.728 58.0277C268.951 57.2452 270.382 56.8548 271.831 56.9083C272.77 56.9057 273.705 57.0349 274.608 57.2921C275.452 57.5262 276.259 57.8817 277.002 58.3475L276.172 59.9786C275.509 59.5529 274.789 59.2251 274.034 59.0054Z" fill="#1B2849"/>
<path d="M288.618 72.5799C287.554 73.3688 286.271 73.8049 284.948 73.8273C284.369 73.8513 283.793 73.7399 283.264 73.502C282.735 73.2641 282.269 72.9062 281.903 72.4566C281.146 71.5428 280.767 70.2102 280.767 68.4588V53.1298H282.906V57.4155H288.299V59.1106H282.906V68.0978C282.906 70.5925 283.693 71.8398 285.267 71.8398C286.23 71.7995 287.161 71.4823 287.948 70.926L288.618 72.5799Z" fill="#1B2849"/>
<path d="M306.745 56.9723V73.7313H304.607V69.9573C304.007 71.1544 303.077 72.1536 301.926 72.8358C300.715 73.536 299.335 73.8899 297.937 73.8593C296.461 73.8852 295.005 73.5094 293.725 72.7718C292.496 72.0565 291.499 71.0016 290.852 69.7335C290.156 68.3683 289.805 66.8527 289.831 65.3199C289.804 63.797 290.155 62.2913 290.852 60.9381C291.505 59.6873 292.496 58.6456 293.711 57.9318C294.974 57.197 296.413 56.8211 297.873 56.8444C299.287 56.8149 300.683 57.1685 301.913 57.8678C303.067 58.5492 304.002 59.5482 304.607 60.7463V56.9723H306.745ZM302.642 70.3594C303.811 69.2201 304.516 67.6863 304.621 66.0555V64.7121C304.512 63.0746 303.808 61.5338 302.642 60.3807C302.073 59.8255 301.398 59.3905 300.658 59.1017C299.918 58.8128 299.128 58.676 298.334 58.6993C297.19 58.681 296.063 58.9798 295.079 59.5629C294.117 60.1354 293.328 60.9601 292.799 61.9479C292.235 63.0039 291.95 64.1864 291.969 65.3838C291.949 66.5752 292.229 67.7526 292.785 68.806C293.31 69.7892 294.1 70.6046 295.065 71.159C296.059 71.7296 297.188 72.0217 298.334 72.0043C299.122 72.0266 299.908 71.8927 300.645 71.6105C301.382 71.3282 302.056 70.9031 302.629 70.3594H302.642Z" fill="#1B2849"/>
<path d="M325.807 58.6537C326.944 59.8142 327.512 61.4073 327.512 63.4329V73.7313H325.351V63.9446C325.351 62.3668 324.915 61.1301 324.043 60.2346C323.171 59.339 321.955 58.8912 320.396 58.8912C319.635 58.8663 318.878 58.995 318.168 59.2698C317.458 59.5445 316.811 59.9596 316.265 60.4904C315.187 61.6386 314.558 63.1372 314.492 64.7121V73.7313H312.353V56.9723H314.492V60.897C315.004 59.6707 315.894 58.64 317.031 57.9546C318.274 57.263 319.676 56.91 321.098 56.9311C323.107 56.9159 324.677 57.4901 325.807 58.6537Z" fill="#1B2849"/>
<path d="M340 72.5799C338.936 73.3688 337.653 73.8049 336.33 73.8273C335.751 73.8513 335.174 73.7399 334.646 73.502C334.117 73.2641 333.651 72.9062 333.284 72.4566C332.527 71.5428 332.149 70.2102 332.149 68.4588V53.1298H334.287V57.4155H339.681V59.1106H334.287V68.0978C334.287 70.5925 335.075 71.8398 336.649 71.8398C337.612 71.7995 338.542 71.4823 339.33 70.926L340 72.5799Z" fill="#1B2849"/>
</g>
<defs>
<clipPath id="clip0_0_1">
<rect width="340.213" height="39.9422" fill="white" transform="translate(0 0.941284)"/>
</clipPath>
<clipPath id="clip1_0_1">
<rect width="248" height="30" fill="white" transform="translate(92 50)"/>
</clipPath>
</defs>
</svg>
