<svg width="239" height="56" viewBox="0 0 239 56" fill="none" xmlns="http://www.w3.org/2000/svg">
<g clip-path="url(#clip0_0_1)">
<path d="M21.5124 15.5625C22.4807 13.9001 22.9645 11.9999 22.909 10.0768C22.9528 8.70626 22.7006 7.34237 22.1695 6.07811C21.6385 4.81384 20.8411 3.67892 19.8318 2.7507C17.8967 1.10557 15.3284 0.2771 11.7778 0.2771H0.332947V28.0607H5.58787V19.989H11.7778C12.2216 19.989 12.5471 19.989 12.7601 19.9535L17.4943 28.0607H23.4889L17.4529 18.9711C19.1325 18.2929 20.5538 17.0995 21.5124 15.5625ZM16.3226 14.0713C15.2732 14.9353 13.7583 15.3673 11.7778 15.3673H5.58787V4.86332H11.7778C13.7602 4.86332 15.2752 5.27756 16.3226 6.11787C17.37 6.95819 17.8908 8.56189 17.8908 10.2307C17.8908 11.8995 17.3641 13.2132 16.3226 14.0713Z" fill="#F3F1EF"/>
<path d="M41.4433 8.27185C39.6726 7.35719 37.7015 6.89949 35.709 6.94037C33.6955 6.89761 31.7029 7.35511 29.9097 8.27185C28.2772 9.11981 26.9219 10.4177 26.004 12.0118C25.0586 13.7067 24.5807 15.6224 24.6192 17.5627C24.5808 19.5199 25.0584 21.4527 26.004 23.1667C26.9179 24.7685 28.2738 26.0731 29.9097 26.9245C31.7029 27.8412 33.6955 28.2987 35.709 28.256C37.7015 28.2968 39.6726 27.8391 41.4433 26.9245C43.0712 26.0705 44.4188 24.766 45.3253 23.1667C46.2755 21.4543 46.7554 19.5207 46.7159 17.5627C46.7556 15.6215 46.2754 13.705 45.3253 12.0118C44.4148 10.4202 43.0678 9.12238 41.4433 8.27185ZM39.9402 22.2258C39.4022 22.8062 38.7464 23.2649 38.0166 23.5711C37.2869 23.8773 36.5001 24.0239 35.709 24.0011C34.9049 24.0301 34.1039 23.8866 33.3598 23.5804C32.6158 23.2742 31.9458 22.8124 31.395 22.2258C30.3311 20.9342 29.7494 19.3129 29.7494 17.6396C29.7494 15.9663 30.3311 14.345 31.395 13.0534C31.9458 12.4668 32.6158 12.0049 33.3598 11.6987C34.1039 11.3925 34.9049 11.2491 35.709 11.2781C36.5001 11.2552 37.2869 11.4019 38.0166 11.708C38.7464 12.0142 39.4022 12.4729 39.9402 13.0534C41.004 14.345 41.5858 15.9663 41.5858 17.6396C41.5858 19.3129 41.004 20.9342 39.9402 22.2258Z" fill="#F3F1EF"/>
<path d="M64.5223 17.4442C64.5787 18.991 64.079 20.5068 63.1139 21.7168C62.6424 22.2718 62.0529 22.7145 61.3885 23.0124C60.724 23.3103 60.0013 23.4561 59.2733 23.4389C58.6639 23.4729 58.0542 23.3789 57.4834 23.1628C56.9126 22.9467 56.3935 22.6134 55.9594 22.1843C55.1262 21.2349 54.701 19.9953 54.7759 18.7343V7.1001H49.6452V20.2256C49.6452 22.7071 50.3238 24.6658 51.6809 26.1018C53.038 27.5379 54.8923 28.2559 57.2436 28.2559C60.6916 28.2559 63.1218 26.8988 64.5342 24.1845V28.0606H69.6648V7.1001H64.5223V17.4442Z" fill="#F3F1EF"/>
<path d="M85.548 6.89307C81.9697 6.94041 79.4626 8.32121 78.0266 11.0355V7.11794H72.9314V28.0785H78.0266V17.758C77.9617 16.1874 78.485 14.6492 79.4941 13.444C79.9965 12.8797 80.6169 12.4329 81.3113 12.1353C82.0058 11.8377 82.7572 11.6966 83.5123 11.7219C84.1371 11.6906 84.7618 11.7873 85.3479 12.0061C85.9341 12.2249 86.4693 12.5611 86.9209 12.9942C87.3513 13.4589 87.6842 14.0053 87.8997 14.6009C88.1152 15.1966 88.2089 15.8295 88.1754 16.462V28.0607H93.312V14.9767C93.312 12.4912 92.6137 10.5265 91.2349 9.05895C89.8561 7.59136 87.9505 6.89307 85.548 6.89307Z" fill="#F3F1EF"/>
<path d="M113.261 10.5265C112.52 9.38823 111.502 8.45746 110.302 7.82211C109 7.17209 107.56 6.84913 106.106 6.88119C104.299 6.84792 102.517 7.30827 100.952 8.21268C99.455 9.09889 98.2449 10.3972 97.4662 11.9527C96.6478 13.7013 96.2236 15.6083 96.2236 17.539C96.2236 19.4696 96.6478 21.3767 97.4662 23.1253C98.2463 24.7009 99.4622 26.0195 100.969 26.9245C102.103 27.593 103.362 28.022 104.668 28.1849C105.177 28.2472 105.688 28.2789 106.201 28.2796C107.636 28.313 109.058 27.9962 110.343 27.3564C111.538 26.7372 112.546 25.8122 113.266 24.6757V28.0429H118.373V0.259277H113.278L113.261 10.5265ZM111.592 22.2199C111.047 22.806 110.382 23.2679 109.643 23.5742C108.904 23.8806 108.107 24.0241 107.307 23.9952C106.8 23.9979 106.294 23.9443 105.798 23.8354C104.733 23.5873 103.769 23.0195 103.035 22.2081C101.941 20.9235 101.34 19.2913 101.34 17.6041C101.34 15.9168 101.941 14.2847 103.035 13.0001C103.578 12.4146 104.24 11.953 104.977 11.6466C105.715 11.3402 106.509 11.1964 107.307 11.2248C108.546 11.1939 109.763 11.5633 110.775 12.2781C111.069 12.495 111.343 12.7387 111.592 13.006C112.67 14.2978 113.261 15.9272 113.261 17.61C113.261 19.2928 112.67 20.9222 111.592 22.214V22.2199Z" fill="#F3F1EF"/>
<path d="M159.608 11.1123V7.07646H154.519V28.0429H159.608V17.9355C159.609 17.5954 159.629 17.2556 159.667 16.9176C159.824 15.5273 160.495 14.246 161.549 13.3256C162.843 12.1894 164.575 11.6883 166.745 11.8225V6.89301C165.253 6.88296 163.786 7.26673 162.49 8.00555C161.257 8.75093 160.259 9.82737 159.608 11.1123Z" fill="#F3F1EF"/>
<path d="M184.794 10.4437C184.058 9.31486 183.037 8.40032 181.835 7.79253C180.556 7.16523 179.146 6.85085 177.722 6.87529C175.901 6.83775 174.105 7.29814 172.526 8.20678C171.025 9.09218 169.809 10.3903 169.023 11.9468C168.373 13.2034 167.971 14.5737 167.84 15.9826C167.787 16.4859 167.761 16.9916 167.763 17.4976C167.724 19.445 168.154 21.3733 169.017 23.1194C169.796 24.6962 171.012 26.0152 172.52 26.9186C174.106 27.8432 175.917 28.3121 177.752 28.2737C178.989 28.2946 180.216 28.0568 181.356 27.5754C181.527 27.5044 181.687 27.4334 181.847 27.3506C183.032 26.7369 184.038 25.8253 184.764 24.7054V28.037H189.859V7.07649H184.764L184.794 10.4437ZM184.794 18.3556C184.709 19.9015 184.053 21.3608 182.953 22.4507C182.444 22.9482 181.841 23.3385 181.178 23.5987C180.446 23.8736 179.67 24.0101 178.888 24.0011C178.09 24.0319 177.294 23.8891 176.557 23.5826C175.819 23.2761 175.157 22.8132 174.615 22.2258C173.486 20.965 172.883 19.3197 172.929 17.6278C172.933 16.862 173.047 16.1008 173.266 15.3672C173.534 14.4876 173.995 13.6789 174.615 13.0001C175.158 12.4146 175.821 11.953 176.558 11.6466C177.295 11.3403 178.09 11.1964 178.888 11.2248C179.635 11.1992 180.38 11.3226 181.079 11.5878C181.778 11.853 182.417 12.2546 182.959 12.7693C184.059 13.8614 184.715 15.3226 184.8 16.8703L184.794 18.3556Z" fill="#F3F1EF"/>
<path d="M209.98 10.5265C209.241 9.38686 208.222 8.45573 207.021 7.82211C205.721 7.1728 204.283 6.84986 202.831 6.88119C201.022 6.84744 199.238 7.30779 197.671 8.21268C196.174 9.09889 194.964 10.3972 194.185 11.9527C193.367 13.7013 192.943 15.6083 192.943 17.539C192.943 19.4696 193.367 21.3767 194.185 23.1253C194.965 24.7009 196.181 26.0195 197.688 26.9245C199.275 27.8477 201.085 28.3165 202.92 28.2796C204.355 28.3114 205.776 27.9946 207.062 27.3564C208.254 26.7354 209.26 25.8107 209.98 24.6757V28.0429H215.075V0.259277H209.98V10.5265ZM208.323 22.2199C207.776 22.8055 207.11 23.267 206.37 23.5733C205.63 23.8796 204.833 24.0234 204.032 23.9952C203.234 24.0252 202.439 23.882 201.702 23.5756C200.964 23.2691 200.302 22.8066 199.76 22.2199C198.666 20.9353 198.065 19.3032 198.065 17.6159C198.065 15.9287 198.666 14.2965 199.76 13.0119C200.303 12.4271 200.966 11.9658 201.703 11.6595C202.44 11.3532 203.234 11.209 204.032 11.2366C204.832 11.2107 205.629 11.3556 206.369 11.6617C207.109 11.9678 207.775 12.4281 208.323 13.0119C209.397 14.3057 209.985 15.9344 209.985 17.6159C209.985 19.2975 209.397 20.9261 208.323 22.2199Z" fill="#F3F1EF"/>
<path d="M232.869 23.4211C231.891 23.9065 230.813 24.1597 229.721 24.1608C228.507 24.19 227.312 23.8562 226.289 23.2022C225.297 22.5512 224.524 21.6172 224.07 20.5214L239 16.2844C238.874 13.4084 237.921 11.13 236.142 9.44942C234.362 7.76879 232.037 6.92649 229.165 6.92254C227.181 6.87849 225.219 7.34298 223.466 8.27178C221.869 9.13393 220.558 10.4415 219.691 12.0355C218.775 13.7378 218.317 15.6481 218.359 17.5803C218.314 19.5308 218.792 21.4576 219.744 23.1607C220.656 24.7528 222.002 26.0521 223.626 26.9067C225.399 27.8194 227.372 28.277 229.366 28.2381C231.126 28.2813 232.872 27.9183 234.469 27.1773C236.066 26.4363 237.471 25.3373 238.574 23.9656L235.615 21.2256C234.863 22.1409 233.928 22.8887 232.869 23.4211ZM223.49 17.1128C223.49 15.1245 224.034 13.5918 225.052 12.5266C225.599 11.9782 226.255 11.5514 226.978 11.2741C227.701 10.9967 228.474 10.875 229.248 10.917C231.615 10.917 233.189 11.9763 234.029 14.0948L223.49 17.1128Z" fill="#F3F1EF"/>
<path d="M142.914 0.448654C142.689 0.448654 142.464 0.395398 142.24 0.377644C142.148 0.362308 142.055 0.352435 141.961 0.348063L141.506 0.318482C141.281 0.318482 141.062 0.288877 140.837 0.282959C140.5 0.282959 140.168 0.282959 139.825 0.282959C139.482 0.282959 139.079 0.282959 138.713 0.282959C137.103 0.343465 135.503 0.563507 133.937 0.939834C133.813 0.939834 133.694 0.993084 133.57 1.02267L132.978 1.17654L132.061 1.44875C131.759 1.54343 131.469 1.64404 131.156 1.75648L130.534 1.98136L129.943 2.22397C129.564 2.38374 129.197 2.55537 128.83 2.7329C128.066 3.08743 127.321 3.48251 126.599 3.91644L127.996 7.7807C128.026 7.85611 128.072 7.92439 128.13 7.98127C128.189 8.03815 128.258 8.08242 128.334 8.1113C128.41 8.14018 128.491 8.15305 128.573 8.14911C128.654 8.14518 128.733 8.12451 128.806 8.08842L129.623 7.65644L129.694 7.62093C129.925 7.49666 130.162 7.37238 130.404 7.25994L130.576 7.1771C130.872 7.03902 131.173 6.90883 131.481 6.78653L131.889 6.62674C132.049 6.56165 132.209 6.50248 132.375 6.44922L132.925 6.25985L133.067 6.21251C134.417 5.79199 135.804 5.50071 137.21 5.34261V28.0311H142.464V5.35444C143.472 5.46694 144.47 5.64886 145.453 5.89888C145.761 5.97581 146.045 6.05865 146.364 6.15333L146.494 6.19476C146.648 6.23618 146.808 6.28944 146.956 6.3427C147.104 6.39596 147.287 6.45513 147.447 6.52023C147.926 6.69184 148.394 6.88713 148.85 7.112C149.063 7.20668 149.282 7.30729 149.489 7.41973C149.938 7.6446 150.382 7.88721 150.808 8.14167C150.878 8.18425 150.956 8.21078 151.038 8.21929C151.119 8.22781 151.201 8.2181 151.278 8.1909C151.355 8.1637 151.425 8.11968 151.483 8.06203C151.541 8.00438 151.586 7.93457 151.613 7.85764L153.039 3.94012C150.183 2.2146 147.013 1.07216 143.713 0.578844L142.914 0.448654Z" fill="#F3F1EF"/>
</g>
<g clip-path="url(#clip1_0_1)">
<path d="M5.8404 50.5153C5.09785 51.0643 4.20421 51.3699 3.28172 51.3904C2.87514 51.407 2.47026 51.3288 2.09897 51.1619C1.72767 50.995 1.40009 50.7441 1.14202 50.4288C0.613226 49.7878 0.348816 48.8529 0.348816 47.6242V36.8706H1.84884V39.8771H5.6325V41.0663H1.84884V47.371C1.84884 49.1211 2.40111 49.9961 3.50561 49.9961C4.18092 49.9679 4.8338 49.7453 5.38622 49.355L5.8404 50.5153Z" fill="#F3F1EF"/>
<path d="M11.2457 40.2523C12.0283 39.7642 12.9339 39.5106 13.8556 39.5215V40.935C13.3094 40.9033 12.7625 40.9836 12.2483 41.171C11.7341 41.3584 11.2635 41.6489 10.8651 42.0247C10.0816 42.8372 9.62583 43.9117 9.58578 45.0409V51.3232H8.08575V39.5663H9.58578V42.3196C9.91848 41.4786 10.4971 40.7579 11.2457 40.2523Z" fill="#F3F1EF"/>
<path d="M26.4827 39.5662V51.323H24.9826V48.6755C24.5618 49.5153 23.909 50.2162 23.102 50.6948C22.2522 51.186 21.2843 51.4343 20.3035 51.4128C19.2676 51.4318 18.246 51.1681 17.3482 50.65C16.4862 50.1481 15.7867 49.4081 15.3332 48.5185C14.8434 47.5613 14.5973 46.4977 14.6168 45.4222C14.5962 44.3538 14.8425 43.2971 15.3332 42.3483C15.791 41.4718 16.4846 40.7412 17.3354 40.2393C18.2227 39.7239 19.2332 39.4602 20.2587 39.4765C21.2495 39.4554 22.2276 39.7035 23.0892 40.1944C23.9 40.6723 24.5571 41.3731 24.9826 42.2138V39.5662H26.4827ZM23.6042 48.9576C24.423 48.1574 24.9174 47.0819 24.9922 45.9383V44.9959C24.9141 43.8475 24.4205 42.7671 23.6042 41.9573C23.2049 41.5678 22.7316 41.2627 22.2124 41.06C21.6932 40.8574 21.1387 40.7614 20.5817 40.7778C19.7793 40.7649 18.989 40.9745 18.2981 41.3836C17.6232 41.7852 17.0703 42.3637 16.6989 43.0567C16.302 43.7969 16.1016 44.6269 16.1168 45.467C16.1013 46.3026 16.2971 47.1286 16.6861 47.8678C17.054 48.5576 17.6082 49.1296 18.2853 49.5185C18.9842 49.9181 19.7771 50.1228 20.5817 50.1115C21.1349 50.1271 21.6858 50.0332 22.2028 49.8352C22.7198 49.6372 23.1927 49.339 23.5946 48.9576H23.6042Z" fill="#F3F1EF"/>
<path d="M41.1024 34.675V51.3231H39.6183V48.6307C39.2004 49.4817 38.5478 50.1948 37.7377 50.6853C36.882 51.183 35.9059 51.4348 34.9168 51.4129C33.8747 51.4364 32.846 51.1737 31.9423 50.6532C31.0803 50.1514 30.3808 49.4114 29.9273 48.5217C29.4375 47.5646 29.1914 46.5009 29.2109 45.4254C29.1903 44.3558 29.44 43.2984 29.9369 42.3516C30.4023 41.4763 31.0995 40.7466 31.9519 40.2426C32.8392 39.7272 33.8497 39.4635 34.8752 39.4797C35.869 39.4582 36.8492 39.7146 37.7057 40.2201C38.5194 40.7144 39.176 41.4303 39.5991 42.2843V34.6783L41.1024 34.675ZM37.453 49.5185C38.1211 49.1254 38.667 48.5539 39.0298 47.8679C39.4198 47.1289 39.6168 46.3029 39.6023 45.4671C39.616 44.6283 39.4192 43.7995 39.0298 43.0568C38.6678 42.3644 38.1222 41.7854 37.453 41.3836C36.7621 40.9746 35.9718 40.7649 35.1694 40.7778C34.3671 40.7649 33.5767 40.9746 32.8858 41.3836C32.2109 41.7853 31.658 42.3638 31.2866 43.0568C30.8897 43.797 30.6893 44.6269 30.7045 45.4671C30.689 46.3027 30.8848 47.1286 31.2738 47.8679C31.6417 48.5576 32.1959 49.1296 32.873 49.5185C33.5717 49.9186 34.3648 50.1234 35.1694 50.1115C35.9701 50.1241 36.7592 49.9191 37.453 49.5185Z" fill="#F3F1EF"/>
<path d="M45.1547 39.5663H46.6547V51.3231H45.1547V39.5663Z" fill="#F3F1EF"/>
<path d="M60.0078 40.7458C60.8074 41.5599 61.2072 42.6775 61.2072 44.0985V51.3231H59.6848V44.4575C59.6848 43.3506 59.3788 42.483 58.7669 41.8548C58.1549 41.2266 57.302 40.9124 56.2082 40.9124C55.6743 40.895 55.1424 40.9854 54.644 41.1781C54.1457 41.3708 53.6911 41.662 53.3073 42.0343C52.5522 42.8401 52.1117 43.8914 52.0663 44.9959V51.3231H50.5663V39.5662H52.0663V42.3195C52.4249 41.4594 53.0478 40.7364 53.8446 40.2554C54.7177 39.7702 55.7024 39.5226 56.7007 39.5374C58.1059 39.5267 59.2082 39.9295 60.0078 40.7458Z" fill="#F3F1EF"/>
<path d="M74.909 39.5663V50.0891C74.9322 51.1292 74.6853 52.1575 74.1925 53.0732C73.7205 53.9188 73.0064 54.6032 72.1424 55.038C71.186 55.5088 70.1309 55.7429 69.0656 55.7208C67.3001 55.7099 65.5952 55.0741 64.2521 53.9258L64.9685 52.8488C65.524 53.3486 66.1598 53.7507 66.8491 54.038C67.5322 54.3124 68.2625 54.4496 68.9984 54.4418C70.3417 54.4418 71.4078 54.0497 72.1968 53.2655C72.6027 52.851 72.9188 52.3568 73.1252 51.8141C73.3316 51.2713 73.4239 50.6917 73.3961 50.1116V48.1884C72.9958 48.9885 72.374 49.6562 71.6051 50.1116C70.7901 50.5859 69.8607 50.8265 68.9184 50.8071C67.9399 50.8244 66.9754 50.5728 66.1295 50.0795C65.3312 49.6018 64.6794 48.9132 64.2457 48.089C63.781 47.1837 63.547 46.1773 63.5644 45.1594C63.5456 44.1455 63.7798 43.1429 64.2457 42.2427C64.684 41.4086 65.3494 40.7162 66.1647 40.2458C67.0163 39.7591 67.983 39.5112 68.9632 39.5278C69.8974 39.5064 70.8193 39.7437 71.6275 40.2138C72.393 40.6733 73.0138 41.3399 73.4185 42.1369V39.5727L74.909 39.5663ZM71.3716 49.0506C72.0085 48.6726 72.5279 48.1243 72.8716 47.4672C73.2362 46.7685 73.4209 45.9895 73.4089 45.2011C73.4225 44.4053 73.2378 43.6188 72.8716 42.9126C72.5278 42.2564 72.0084 41.7092 71.3716 41.3324C70.7135 40.9462 69.9625 40.7478 69.1999 40.7586C68.4372 40.7466 67.6859 40.9451 67.0282 41.3324C66.3885 41.7096 65.865 42.2563 65.5154 42.9126C65.1431 43.6169 64.955 44.4042 64.9685 45.2011C64.9542 45.995 65.1425 46.7794 65.5154 47.48C65.866 48.1287 66.3841 48.6712 67.0154 49.0506C67.6771 49.439 68.4332 49.6365 69.1999 49.6212C69.9622 49.6332 70.7132 49.4358 71.3716 49.0506Z" fill="#F3F1EF"/>
<path d="M94.8987 39.5663V51.3232H93.4018V48.6756C92.979 49.5141 92.3267 50.2145 91.5212 50.6949C90.6712 51.1856 89.7034 51.4339 88.7226 51.4129C87.6858 51.4315 86.6633 51.1679 85.7642 50.6501C84.9039 50.1472 84.2056 49.4074 83.7524 48.5186C83.2616 47.5617 83.0144 46.4981 83.0328 45.4223C83.0132 44.3536 83.2605 43.2969 83.7524 42.3485C84.2102 41.4719 84.9038 40.7413 85.7546 40.2394C86.6409 39.7244 87.6503 39.4607 88.6747 39.4766C89.6665 39.4556 90.6456 39.7037 91.5084 40.1945C92.3184 40.6734 92.9753 41.3739 93.4018 42.2139V39.5663H94.8987ZM92.0201 48.9577C92.8377 48.1566 93.3319 47.0817 93.4082 45.9384V44.996C93.3286 43.8479 92.8353 42.768 92.0201 41.9574C91.6205 41.5675 91.1467 41.2621 90.6269 41.0595C90.1071 40.8568 89.552 40.7611 88.9945 40.7779C88.1921 40.765 87.4018 40.9747 86.7109 41.3837C86.0367 41.7862 85.484 42.3645 85.1117 43.0568C84.7163 43.7976 84.5159 44.6272 84.5296 45.4672C84.5152 46.303 84.7121 47.1289 85.1021 47.8679C85.47 48.5577 86.0242 49.1297 86.7013 49.5186C87.3987 49.9189 88.1908 50.1238 88.9945 50.1116C89.5487 50.1276 90.1007 50.0338 90.6187 49.8358C91.1368 49.6378 91.6108 49.3394 92.0137 48.9577H92.0201Z" fill="#F3F1EF"/>
<path d="M103.406 40.9925C102.875 40.8378 102.325 40.758 101.772 40.7554C101.142 40.7262 100.517 40.8786 99.9712 41.1945C99.7506 41.3317 99.5707 41.5257 99.4504 41.7563C99.33 41.9868 99.2735 42.2455 99.2868 42.5054C99.2797 42.6865 99.3088 42.8671 99.3726 43.0367C99.4363 43.2062 99.5333 43.3613 99.6578 43.4927C99.9193 43.7585 100.231 43.9688 100.576 44.1112C101.076 44.3158 101.587 44.4913 102.108 44.6369C102.78 44.8272 103.438 45.0639 104.078 45.3453C104.584 45.5744 105.029 45.9204 105.376 46.3549C105.754 46.8528 105.944 47.4678 105.914 48.0922C105.937 48.568 105.838 49.0418 105.627 49.4684C105.415 49.8949 105.098 50.2598 104.705 50.5282C103.808 51.1147 102.752 51.4081 101.682 51.3679C100.843 51.3703 100.01 51.226 99.2196 50.9417C98.4754 50.6879 97.7954 50.2744 97.2271 49.7301L97.8315 48.6531C98.3592 49.129 98.971 49.5019 99.6354 49.7525C100.309 50.0179 101.026 50.1549 101.75 50.1563C102.43 50.1867 103.104 50.015 103.688 49.6628C103.929 49.5116 104.125 49.2989 104.256 49.0465C104.388 48.7941 104.45 48.5112 104.436 48.2268C104.453 47.8359 104.316 47.4541 104.056 47.1627C103.788 46.8794 103.46 46.6602 103.096 46.5216C102.714 46.3635 102.188 46.1797 101.516 45.9703C100.862 45.7808 100.221 45.5484 99.597 45.2748C99.1099 45.0568 98.6804 44.7275 98.3433 44.3132C97.9828 43.8324 97.8007 43.2408 97.8283 42.64C97.8035 42.1843 97.8968 41.7299 98.0991 41.321C98.3014 40.9121 98.6059 40.5626 98.9829 40.3066C99.8405 39.7577 100.845 39.4838 101.861 39.5213C102.52 39.5195 103.176 39.6102 103.809 39.7906C104.402 39.9548 104.967 40.2042 105.488 40.531L104.906 41.6753C104.442 41.3766 103.936 41.1466 103.406 40.9925Z" fill="#F3F1EF"/>
<path d="M113.011 40.9925C112.48 40.8378 111.93 40.758 111.377 40.7554C110.747 40.7262 110.122 40.8786 109.576 41.1945C109.355 41.3312 109.175 41.5251 109.054 41.7558C108.934 41.9865 108.877 42.2454 108.891 42.5054C108.884 42.6865 108.913 42.8671 108.977 43.0367C109.041 43.2062 109.138 43.3613 109.262 43.4927C109.523 43.7592 109.836 43.9696 110.18 44.1112C110.681 44.3158 111.192 44.4913 111.712 44.6369C112.385 44.8272 113.043 45.0639 113.683 45.3453C114.189 45.5744 114.634 45.9204 114.981 46.3549C115.358 46.8528 115.549 47.4678 115.518 48.0922C115.542 48.568 115.443 49.0418 115.231 49.4684C115.02 49.8949 114.702 50.2598 114.309 50.5282C113.413 51.1147 112.357 51.4081 111.287 51.3679C110.448 51.3703 109.614 51.226 108.824 50.9417C108.08 50.6879 107.4 50.2744 106.832 49.7301L107.436 48.6531C107.964 49.129 108.576 49.5019 109.24 49.7525C109.914 50.0179 110.631 50.1549 111.354 50.1563C112.035 50.1864 112.709 50.0147 113.292 49.6628C113.533 49.5116 113.729 49.2989 113.861 49.0465C113.993 48.7941 114.055 48.5112 114.041 48.2268C114.057 47.8359 113.921 47.4541 113.66 47.1627C113.393 46.8794 113.065 46.6602 112.701 46.5216C112.321 46.3635 111.794 46.1797 111.121 45.9703C110.467 45.7808 109.825 45.5484 109.202 45.2748C108.715 45.0568 108.285 44.7275 107.948 44.3132C107.587 43.8324 107.405 43.2408 107.433 42.64C107.407 42.1842 107.5 41.7294 107.702 41.3203C107.905 40.9113 108.21 40.562 108.588 40.3066C109.445 39.7577 110.449 39.4838 111.466 39.5213C112.125 39.5195 112.78 39.6102 113.414 39.7906C114.006 39.9548 114.572 40.2042 115.093 40.531L114.511 41.6753C114.046 41.3766 113.541 41.1466 113.011 40.9925Z" fill="#F3F1EF"/>
<path d="M118.048 39.5663H119.548V51.3231H118.048V39.5663Z" fill="#F3F1EF"/>
<path d="M128.034 40.9925C127.502 40.8378 126.952 40.758 126.399 40.7554C125.769 40.7262 125.145 40.8786 124.599 41.1945C124.377 41.3312 124.197 41.5251 124.077 41.7558C123.956 41.9865 123.9 42.2454 123.914 42.5054C123.907 42.6865 123.936 42.8671 124 43.0367C124.064 43.2062 124.161 43.3613 124.285 43.4927C124.546 43.7592 124.858 43.9696 125.203 44.1112C125.703 44.3158 126.215 44.4913 126.735 44.6369C127.407 44.8272 128.066 45.0639 128.705 45.3453C129.212 45.5744 129.657 45.9204 130.004 46.3549C130.381 46.8528 130.571 47.4678 130.541 48.0922C130.565 48.568 130.466 49.0418 130.254 49.4684C130.042 49.8949 129.725 50.2598 129.332 50.5282C128.436 51.1147 127.38 51.4081 126.31 51.3679C125.47 51.3703 124.637 51.226 123.847 50.9417C123.103 50.6879 122.423 50.2744 121.854 49.7301L122.459 48.6531C122.987 49.129 123.598 49.5019 124.263 49.7525C124.936 50.0179 125.653 50.1549 126.377 50.1563C127.057 50.1864 127.731 50.0147 128.315 49.6628C128.556 49.5116 128.752 49.2989 128.884 49.0465C129.015 48.7941 129.077 48.5112 129.063 48.2268C129.08 47.8359 128.943 47.4541 128.683 47.1627C128.415 46.8794 128.087 46.6602 127.723 46.5216C127.342 46.3635 126.815 46.1797 126.143 45.9703C125.489 45.7808 124.848 45.5484 124.224 45.2748C123.737 45.0568 123.308 44.7275 122.971 44.3132C122.61 43.8324 122.428 43.2408 122.456 42.64C122.43 42.1842 122.523 41.7294 122.725 41.3203C122.928 40.9113 123.233 40.562 123.61 40.3066C124.468 39.7577 125.472 39.4838 126.489 39.5213C127.147 39.5195 127.803 39.6102 128.437 39.7906C129.029 39.9548 129.595 40.2042 130.116 40.531L129.534 41.6753C129.069 41.3766 128.564 41.1466 128.034 40.9925Z" fill="#F3F1EF"/>
<path d="M138.265 50.5153C137.519 51.0687 136.619 51.3747 135.69 51.3904C135.284 51.4073 134.88 51.3291 134.509 51.1622C134.138 50.9953 133.811 50.7443 133.554 50.4288C133.023 49.7878 132.758 48.8529 132.758 47.6242V36.8706H134.258V39.8771H138.041V41.0663H134.258V47.371C134.258 49.1211 134.81 49.9961 135.914 49.9961C136.59 49.9679 137.243 49.7453 137.795 49.355L138.265 50.5153Z" fill="#F3F1EF"/>
<path d="M150.982 39.5663V51.3231H149.482V48.6756C149.061 49.5154 148.408 50.2163 147.601 50.6949C146.751 51.1861 145.783 51.4344 144.803 51.4129C143.767 51.4311 142.745 51.1674 141.847 50.65C140.985 50.1482 140.286 49.4082 139.832 48.5185C139.344 47.5608 139.098 46.4976 139.116 45.4223C139.097 44.354 139.343 43.2977 139.832 42.3484C140.29 41.4709 140.985 40.7401 141.838 40.2394C142.724 39.724 143.733 39.4602 144.758 39.4765C145.75 39.4559 146.729 39.7039 147.591 40.1945C148.401 40.6725 149.057 41.3734 149.482 42.2138V39.5663H150.982ZM148.103 48.9577C148.923 48.1584 149.418 47.0824 149.491 45.9383V44.996C149.415 43.8472 148.921 42.7663 148.103 41.9574C147.704 41.5679 147.231 41.2627 146.711 41.0601C146.192 40.8575 145.638 40.7615 145.081 40.7778C144.278 40.765 143.488 40.9746 142.797 41.3836C142.122 41.7853 141.569 42.3638 141.198 43.0568C140.803 43.7976 140.602 44.6271 140.616 45.4671C140.601 46.303 140.798 47.1289 141.188 47.8679C141.556 48.5576 142.11 49.1296 142.788 49.5186C143.485 49.9189 144.277 50.1238 145.081 50.1116C145.634 50.1272 146.185 50.0333 146.702 49.8353C147.219 49.6373 147.692 49.3391 148.094 48.9577H148.103Z" fill="#F3F1EF"/>
<path d="M164.354 40.7458C165.152 41.5599 165.55 42.6775 165.55 44.0985V51.3231H164.034V44.4575C164.034 43.3506 163.728 42.483 163.116 41.8548C162.504 41.2266 161.651 40.9124 160.558 40.9124C160.024 40.8949 159.493 40.9853 158.995 41.178C158.497 41.3707 158.043 41.6619 157.66 42.0343C156.904 42.8398 156.462 43.891 156.416 44.9959V51.3231H154.916V39.5662H156.416V42.3195C156.776 41.4592 157.4 40.7362 158.197 40.2554C159.069 39.7702 160.053 39.5226 161.05 39.5374C162.46 39.5267 163.561 39.9295 164.354 40.7458Z" fill="#F3F1EF"/>
<path d="M174.311 50.5153C173.564 51.0687 172.664 51.3747 171.736 51.3904C171.33 51.4073 170.925 51.3291 170.554 51.1622C170.184 50.9953 169.857 50.7443 169.599 50.4288C169.068 49.7878 168.803 48.8529 168.803 47.6242V36.8706H170.303V39.8771H174.087V41.0663H170.303V47.371C170.303 49.1211 170.855 49.9961 171.96 49.9961C172.635 49.9679 173.288 49.7453 173.84 49.355L174.311 50.5153Z" fill="#F3F1EF"/>
</g>
<defs>
<clipPath id="clip0_0_1">
<rect width="238.667" height="28.0203" fill="white" transform="translate(0.332947 0.259277)"/>
</clipPath>
<clipPath id="clip1_0_1">
<rect width="173.978" height="21.0457" fill="white" transform="translate(0.332947 34.675)"/>
</clipPath>
</defs>
</svg>
